# xmcd
#
# Track frame offsets: 
#        150
#        13641
#        27648
#        37840
#        48116
#        67433
#        87003
#        106139
#        121546
#        147817
#        162837
#        186036
#
# Disc length: 2829 seconds
#
# Revision: 0
# Processed by: cddbd v1.5.2PL0 Copyright (c) Steve Scherf et al.
# Submitted via: ExactAudioCopy v0.99pb3
#
DISCID=910b0b0c
DTITLE=Harmed Brothers, the - All the Lies You Wanna Hear [CD]
DYEAR=1900
DGENRE=Americana
TTITLE0=Kansas Wind
TTITLE1=Lone Tree
TTITLE2=When I Get Back (Tailor- Made Blues)
TTITLE3=Song for Lauren
TTITLE4=One Night
TTITLE5=Sunshine
TTITLE6=Cryin' Shame
TTITLE7=Ozark Mountain High
TTITLE8=One in the Garden
TTITLE9=You Could Not Lie
TTITLE10=Greetings from Mardi Gras
TTITLE11=Here Comes the Cadillac [bonus track]
EXTD=
EXTT0=
EXTT1=
EXTT2=
EXTT3=
EXTT4=
EXTT5=
EXTT6=
EXTT7=
EXTT8=
EXTT9=
EXTT10=
EXTT11=
PLAYORDER=
